<svg width="102" height="78" viewBox="0 0 102 78" fill="none" xmlns="http://www.w3.org/2000/svg">
<mask id="path-1-inside-1" fill="white">
<path d="M23.4305 21.6601L23.4289 21.6617C20.448 24.6862 18.1409 27.8804 16.5249 31.247C14.9006 34.6309 13.7871 38.9362 13.1545 44.1281L13.0179 45.249H14.1471H21.6426C27.9461 45.249 32.7389 46.7407 36.1472 49.5993L36.1586 49.6089L36.1703 49.6182C39.625 52.3444 41.4114 56.4096 41.4114 61.994C41.4114 65.8382 39.8734 69.5007 36.676 73.0016L36.6746 73.0032C33.6734 76.3036 29.4884 77.9995 23.985 77.9995C15.2423 77.9995 9.2066 75.3157 5.60045 70.15C1.89637 64.7447 0 57.6171 0 48.6853C0 42.4354 1.41972 36.7887 4.24566 31.7233H4.24569L4.24949 31.7164C7.11979 26.4744 10.602 21.8202 14.6957 17.7497C18.9135 13.5607 23.3825 10.0109 28.102 7.09619C32.4828 4.39071 36.2055 2.14188 39.2716 0.348633L43.8064 7.50586C39.3342 9.95863 35.6691 12.1165 32.8172 13.9785C29.7207 15.901 26.5924 18.4663 23.4305 21.6601ZM62.0273 31.7164C64.8976 26.4744 68.3797 21.8202 72.4734 17.7497C76.6913 13.5607 81.1602 10.0109 85.8798 7.09619C90.2606 4.39071 93.9833 2.14188 97.0493 0.348633L101.584 7.50586C97.112 9.95863 93.4468 12.1165 90.595 13.9785C87.4984 15.901 84.3702 18.4663 81.2083 21.6601L81.2075 21.6609C78.125 24.7812 75.7642 28.0247 74.1465 31.3949L74.1433 31.4015L74.1402 31.4082C72.6235 34.6912 71.564 38.9436 70.9323 44.1281L70.7957 45.249H71.9249H79.4204C85.7239 45.249 90.5167 46.7407 93.9249 49.5993L93.9364 49.6089L93.9481 49.6182C97.4028 52.3444 99.189 56.4096 99.189 61.994C99.189 65.8382 97.6512 69.5007 94.4538 73.0016L94.4523 73.0032C91.4512 76.3036 87.2662 77.9995 81.7628 77.9995C73.02 77.9995 66.9843 75.3157 63.3781 70.1498C59.6741 64.7445 57.7778 57.617 57.7778 48.6853C57.7778 42.4354 59.1975 36.7887 62.0234 31.7233H62.0235L62.0273 31.7164Z"/>
</mask>
<path d="M23.4305 21.6601L23.4289 21.6617C20.448 24.6862 18.1409 27.8804 16.5249 31.247C14.9006 34.6309 13.7871 38.9362 13.1545 44.1281L13.0179 45.249H14.1471H21.6426C27.9461 45.249 32.7389 46.7407 36.1472 49.5993L36.1586 49.6089L36.1703 49.6182C39.625 52.3444 41.4114 56.4096 41.4114 61.994C41.4114 65.8382 39.8734 69.5007 36.676 73.0016L36.6746 73.0032C33.6734 76.3036 29.4884 77.9995 23.985 77.9995C15.2423 77.9995 9.2066 75.3157 5.60045 70.15C1.89637 64.7447 0 57.6171 0 48.6853C0 42.4354 1.41972 36.7887 4.24566 31.7233H4.24569L4.24949 31.7164C7.11979 26.4744 10.602 21.8202 14.6957 17.7497C18.9135 13.5607 23.3825 10.0109 28.102 7.09619C32.4828 4.39071 36.2055 2.14188 39.2716 0.348633L43.8064 7.50586C39.3342 9.95863 35.6691 12.1165 32.8172 13.9785C29.7207 15.901 26.5924 18.4663 23.4305 21.6601ZM62.0273 31.7164C64.8976 26.4744 68.3797 21.8202 72.4734 17.7497C76.6913 13.5607 81.1602 10.0109 85.8798 7.09619C90.2606 4.39071 93.9833 2.14188 97.0493 0.348633L101.584 7.50586C97.112 9.95863 93.4468 12.1165 90.595 13.9785C87.4984 15.901 84.3702 18.4663 81.2083 21.6601L81.2075 21.6609C78.125 24.7812 75.7642 28.0247 74.1465 31.3949L74.1433 31.4015L74.1402 31.4082C72.6235 34.6912 71.564 38.9436 70.9323 44.1281L70.7957 45.249H71.9249H79.4204C85.7239 45.249 90.5167 46.7407 93.9249 49.5993L93.9364 49.6089L93.9481 49.6182C97.4028 52.3444 99.189 56.4096 99.189 61.994C99.189 65.8382 97.6512 69.5007 94.4538 73.0016L94.4523 73.0032C91.4512 76.3036 87.2662 77.9995 81.7628 77.9995C73.02 77.9995 66.9843 75.3157 63.3781 70.1498C59.6741 64.7445 57.7778 57.617 57.7778 48.6853C57.7778 42.4354 59.1975 36.7887 62.0234 31.7233H62.0235L62.0273 31.7164Z" stroke="#DADEDF" stroke-width="2" mask="url(#path-1-inside-1)"/>
</svg>
