<?xml version="1.0" encoding="utf-8"?><svg width="102" height="78" fill="none" xmlns="http://www.w3.org/2000/svg" viewBox="0 0 102 78"><mask id="ba" fill="#fff"><path d="M23.43 21.66l-.001.002c-2.981 3.024-5.288 6.218-6.904 9.585-1.624 3.384-2.738 7.69-3.37 12.881l-.137 1.121h8.625c6.303 0 11.096 1.492 14.504 4.35l.012.01.011.01c3.455 2.725 5.241 6.79 5.241 12.375 0 3.844-1.538 7.507-4.735 11.008l-.001.001C33.673 76.303 29.488 78 23.985 78 15.242 78 9.207 75.316 5.6 70.15 1.896 64.745 0 57.617 0 48.685c0-6.25 1.42-11.896 4.246-16.962l.003-.007c2.87-5.242 6.353-9.896 10.447-13.966 4.217-4.19 8.687-7.74 13.406-10.654 4.38-2.705 8.104-4.954 11.17-6.747l4.534 7.157c-4.472 2.453-8.137 4.61-10.989 6.473-3.096 1.922-6.225 4.487-9.387 7.681zm38.597 10.056c2.87-5.242 6.353-9.896 10.446-13.966 4.218-4.19 8.687-7.74 13.407-10.654C90.26 4.391 93.983 2.142 97.05.35l4.534 7.157c-4.472 2.453-8.137 4.61-10.989 6.473-3.097 1.922-6.225 4.487-9.387 7.681-3.083 3.121-5.444 6.365-7.061 9.735l-.004.006-.003.007c-1.516 3.283-2.576 7.536-3.208 12.72l-.136 1.121h8.624c6.304 0 11.097 1.492 14.505 4.35l.011.01.012.01c3.455 2.725 5.241 6.79 5.241 12.375 0 3.844-1.538 7.507-4.735 11.008l-.002.001c-3 3.3-7.186 4.996-12.69 4.996-8.742 0-14.778-2.683-18.384-7.85-3.704-5.404-5.6-12.532-5.6-21.464 0-6.25 1.42-11.896 4.245-16.962l.004-.007z"/></mask><path d="M23.43 21.66l-.001.002c-2.981 3.024-5.288 6.218-6.904 9.585-1.624 3.384-2.738 7.69-3.37 12.881l-.137 1.121h8.625c6.303 0 11.096 1.492 14.504 4.35l.012.01.011.01c3.455 2.725 5.241 6.79 5.241 12.375 0 3.844-1.538 7.507-4.735 11.008l-.001.001C33.673 76.303 29.488 78 23.985 78 15.242 78 9.207 75.316 5.6 70.15 1.896 64.745 0 57.617 0 48.685c0-6.25 1.42-11.896 4.246-16.962h0l.003-.007c2.87-5.242 6.353-9.896 10.447-13.966 4.217-4.19 8.687-7.74 13.406-10.654 4.38-2.705 8.104-4.954 11.17-6.747l4.534 7.157c-4.472 2.453-8.137 4.61-10.989 6.473-3.096 1.922-6.225 4.487-9.387 7.681zm38.597 10.056c2.87-5.242 6.353-9.896 10.446-13.966 4.218-4.19 8.687-7.74 13.407-10.654C90.26 4.391 93.983 2.142 97.05.35l4.534 7.157c-4.472 2.453-8.137 4.61-10.989 6.473-3.097 1.922-6.225 4.487-9.387 7.681h0c-3.083 3.121-5.444 6.365-7.061 9.735l-.004.006-.003.007c-1.516 3.283-2.576 7.536-3.208 12.72l-.136 1.121h8.624c6.304 0 11.097 1.492 14.505 4.35l.011.01.012.01c3.455 2.725 5.241 6.79 5.241 12.375 0 3.844-1.538 7.507-4.735 11.008l-.002.001c-3 3.3-7.186 4.996-12.69 4.996-8.742 0-14.778-2.683-18.384-7.85-3.704-5.404-5.6-12.532-5.6-21.464 0-6.25 1.42-11.896 4.245-16.962h0l.004-.007z" stroke="#DADEDF" stroke-width="2" mask="url(#ba)"/></svg>